<svg width="52" height="51" viewBox="0 0 52 51" fill="none" xmlns="http://www.w3.org/2000/svg">
<mask id="mask0_1269_1207" style="mask-type:alpha" maskUnits="userSpaceOnUse" x="0" y="0" width="52" height="51">
<circle cx="26.1037" cy="25.4817" r="25.4074" fill="#C4C4C4"/>
</mask>
<g mask="url(#mask0_1269_1207)">
<path d="M8.42208 34.3514C8.91234 35.4227 9.50335 36.4619 10.232 37.4434C10.5183 37.8296 10.8279 38.1801 11.1375 38.5306C11.5504 39.4899 12.0333 40.4099 12.5837 41.2708C10.9397 40.0212 9.63358 38.4593 8.62112 36.5664C8.5007 35.8568 8.43928 35.1103 8.42208 34.3514ZM19.0013 11.7987C16.9101 12.3386 15.1124 13.3656 13.9378 15.0285C13.7682 14.9141 13.5864 14.8267 13.3984 14.7603C14.2278 13.5821 15.1554 12.6055 16.1728 11.8245C17.0624 11.7286 18.022 11.7311 19.0013 11.7987ZM22.0019 22.4079C21.535 22.7965 21.1344 23.2319 20.7904 23.7029C20.9243 23.0572 21.1491 22.5001 21.4551 22.0401C21.648 22.152 21.8286 22.275 22.0019 22.4079ZM42.6075 31.1167C42.519 30.8695 42.4232 30.6236 42.3187 30.3788C42.3519 30.1414 42.3826 29.9053 42.4084 29.6704C42.5202 28.6361 42.476 27.6153 42.3028 26.6178C42.5903 25.8344 42.7992 24.9881 42.9356 24.1038C43.4455 23.2405 43.8374 22.3107 44.0967 21.344C44.7369 23.5406 44.963 25.6991 44.4838 27.5414C44.1508 28.8193 43.4836 30.0111 42.6075 31.1167ZM46.6414 15.2953C42.8434 7.4252 36.889 1.18469 27.5962 0.208149C7.63202 -1.8876 -3.84053 21.0144 3.60059 37.5922C3.78735 38.6118 4.0761 39.6031 4.51598 40.5427C5.81596 43.3297 7.90846 45.0565 10.3143 45.9026C12.3724 47.3047 14.7684 48.4117 17.3094 49.2074C20.2583 52.7815 24.8083 53.3473 28.5104 50.6501C30.4174 50.5394 32.2297 50.2343 33.8529 49.7215C42.3753 47.0292 50.1272 36.5136 50.4602 27.673C50.6335 23.0892 49.1504 18.8707 46.6414 15.2953Z" fill="#B7DEBF"/>
<path d="M38.9122 20.5041C38.3582 18.3116 37.1375 16.7858 35.9169 14.6022C33.4222 10.1432 29.6624 6.17013 26.3648 5.77015C8.02816 3.54214 14.4959 24.8623 16.0455 35.955C17.0765 43.1783 20.7711 50.1586 19.6571 57.37C18.2172 66.6761 8.81923 70.7855 3.66102 61.2394C0.564907 55.5627 -4.20814 48.6002 -13.3661 48.5972C-17.3244 48.5972 -22.4885 52.1111 -25.2795 55.4176C-25.2795 55.4176 -27.8423 60.0277 -28.9563 57.7967C-30.2036 55.305 -22.8678 47.4121 -15.4312 47.0506C-4.85403 46.5351 4.10544 44.9589 -1.75792 35.6973C-3.36967 33.1493 -7.33092 28.9095 -9.49671 29.5702C-11.8195 30.2783 -3.82298 35.7624 -5.62732 38.8585C-7.43165 41.6969 -14.9156 40.6629 -17.754 40.4051C-25.4928 39.8896 -33.2346 41.9547 -40.4578 46.5973C-51.7609 53.791 -55.6391 75.2979 -36.5766 79.5583C-32.8583 81.739 -32.8405 82.7137 -32.6538 84.7817C-34.0078 87.2971 -34.5885 89.4274 -33.6197 91.5547C-32.6538 93.6819 -28.0082 95.2285 -23.17 94.4552C-19.5228 93.8716 -17.7659 90.3873 -17.754 90.4081C-17.3066 91.128 -16.7822 91.9102 -14.9038 92.6301C-13.612 93.1249 -11.4759 93.1872 -8.6938 92.4287C-8.6938 92.4287 -6.56356 94.9737 -4.71181 95.2107C1.22857 95.9692 2.84922 95.4833 4.88465 94.7011C6.56158 94.0582 7.01489 92.9738 7.01489 92.9738C10.5613 94.393 15.5003 94.2775 16.561 90.3932C17.2365 87.9104 14.2382 87.0394 12.9582 86.669C13.7552 85.4928 12.4131 82.3167 11.1421 81.6234C29.3306 83.17 29.9024 68.6938 29.2032 59.6929C28.3647 48.9202 17.8498 31.0546 19.3993 27.6977C22.3058 29.8161 23.6095 29.1762 22.848 27.1911C22.2081 25.5171 21.7785 24.0476 22.4954 22.5395C22.2466 24.1187 25.4375 27.8044 29.1232 29.4013C31.8282 30.5746 34.9954 31.6205 37.6471 29.4487C39.7329 27.7422 39.9877 24.7409 38.9122 20.5041Z" fill="#0FA245"/>
<path d="M39.6443 20.3087C37.2059 12.8544 31.5499 4.92597 23.0971 5.24595C18.6233 5.41483 15.1361 7.86209 13.7081 12.0989C11.883 17.4971 13.2547 23.9915 14.1821 29.4223C14.7095 32.5095 15.1598 35.6234 15.7731 38.6928C16.9582 44.5858 19.3522 50.0729 19.0737 56.197C18.8426 61.3078 14.8843 68.0955 8.90242 65.7164C5.00636 64.1669 3.34127 58.8427 0.974003 55.6518C-2.8391 50.5114 -10.0505 46.4168 -16.539 48.8344C-19.807 50.0551 -22.9327 52.0343 -25.2733 54.6504C-25.9933 55.4563 -26.5118 56.3421 -27.1695 57.1984C-28.5294 58.9642 -28.1857 56.1259 -28.1057 55.8829C-27.6761 54.5704 -26.4732 53.3231 -25.5518 52.3691C-21.5135 48.1915 -16.6012 47.6108 -11.1408 47.1249C-7.99731 46.8464 -4.80639 46.3131 -1.97989 44.8495C3.87161 41.8186 -0.945881 35.0042 -4.01532 31.8281C-5.37228 30.4237 -7.46697 28.6608 -9.58832 29.2297C-11.0045 29.6089 -10.6609 30.6163 -10.0268 31.5851C-8.32618 34.1805 -2.54282 39.1698 -9.40166 40.2809C-13.6947 40.9771 -18.2663 39.7743 -22.6187 40.0498C-30.2537 40.5327 -38.8577 43.7562 -44.3448 49.2048C-52.5132 57.3199 -53.2983 71.9945 -42.4367 78.0209C-39.2369 79.7956 -34.0491 79.9348 -33.4476 84.3257C-33.3143 85.2886 -34.4787 87.3862 -34.7364 88.4113C-34.9379 89.1965 -34.7987 89.9016 -34.7098 90.6838C-34.529 92.2985 -33.1543 93.2111 -31.8596 93.9044C-27.2554 96.3694 -20.364 94.885 -17.1108 90.7727C-17.5641 90.8645 -18.0174 90.9593 -18.4707 91.0512C-17.1464 93.0659 -14.945 93.3148 -12.6489 93.3948C-11.523 93.4303 -9.69795 92.9918 -8.86541 93.611C-7.77214 94.4258 -6.71442 95.2228 -5.16489 95.5902C-1.86138 96.3783 5.67594 96.716 7.6936 92.977C7.26992 93.0896 6.85217 93.2022 6.4285 93.3148C9.9868 94.5828 14.6917 94.8495 16.9286 91.226C18.0634 89.3891 17.0056 87.9373 15.4265 87.0129C14.2177 86.3048 13.9125 86.5596 13.9036 85.0782C13.8917 83.6798 12.8696 82.1806 11.8237 81.3421C11.5008 81.5673 11.1778 81.7925 10.8519 82.0176C15.9538 82.3613 21.8527 81.8014 25.5947 77.8609C29.1768 74.0863 30.036 68.937 30.11 63.9091C30.2078 57.2369 28.2079 51.0891 25.8258 44.9265C24.46 41.3949 22.9549 37.9195 21.6039 34.382C21.038 32.9006 19.9862 30.717 19.9506 28.8712C19.9536 28.7764 19.9862 28.7942 20.0188 28.806C21.2098 29.1912 22.0187 29.7097 22.946 29.1793C23.1001 29.0904 23.4339 28.9282 23.6634 28.4692C23.7922 28.2116 23.7163 27.5142 23.6393 27.2357C23.5889 27.055 23.4793 26.6432 23.4319 26.4802C23.4378 26.5128 23.4912 26.5099 23.4912 26.5099C26.1429 29.3512 31.2151 31.0429 34.2076 31.0933C40.3316 31.1911 40.6427 24.664 39.6443 20.3087C39.5376 19.8317 38.0681 20.2051 38.1807 20.7028C38.5925 22.5012 38.868 24.1633 38.7377 26.024C38.4147 30.477 32.8536 30.3615 29.7101 29.0608C27.3546 28.0861 23.2749 25.5825 23.1475 22.359C23.1297 21.882 22.0987 22.0272 21.915 22.359C21.6128 22.9219 21.6572 23.5708 21.8379 24.8892C22.0276 26.2788 24.0008 30.003 20.081 27.4194C19.7107 27.1765 18.8278 27.3306 18.6678 27.7987C17.5152 31.1911 20.9017 36.7641 22.1224 39.7594C24.5667 45.762 27.2035 51.8328 28.282 58.262C29.0405 62.7981 28.8538 67.8259 27.5383 72.2316C25.334 79.603 18.5226 81.7066 11.4356 81.2266C11.2608 81.2147 10.052 81.5732 10.4608 81.9021C11.8267 82.9983 12.8548 85.0012 12.2296 86.77C12.1911 86.8707 12.277 86.9833 12.3718 87.0129C14.111 87.5314 16.0842 88.1358 15.8324 90.4912C15.4176 94.3458 10.0194 93.4925 7.60176 92.6304C7.25511 92.5089 6.53219 92.6067 6.33665 92.9711C4.04938 97.2019 -5.12637 95.0658 -7.84324 93.0392C-8.16322 92.8022 -8.38247 91.9933 -8.7854 92.0852C-11.8252 92.7992 -15.185 92.9977 -17.0723 90.1268C-17.3182 89.7535 -18.2367 90.1564 -18.4322 90.4053C-21.5906 94.3962 -31.3381 95.9724 -33.2462 90.2927C-34.0846 87.801 -31.7707 86.1596 -31.9811 83.9346C-32.1233 82.4324 -32.7958 81.5466 -33.9217 80.5807C-36.76 78.1364 -40.8339 77.9705 -43.8914 75.6151C-46.5876 73.5352 -48.1845 70.4391 -48.8778 67.1622C-50.2644 60.6323 -47.2661 53.4712 -42.6649 48.9026C-38.8162 45.0776 -33.0802 42.8852 -27.9368 41.5904C-22.746 40.2809 -17.736 41.069 -12.5156 41.1934C-8.26692 41.2971 -2.56652 39.9016 -5.79003 34.7583C-6.51888 33.5939 -7.47586 32.5599 -8.32322 31.4814C-10.4327 28.8031 -6.26704 31.5555 -5.3782 32.388C-2.72058 34.8768 1.48656 40.3876 -1.92952 43.7888C-4.96342 46.8109 -11.4401 46.3013 -15.3243 46.6687C-18.7463 46.9886 -21.7091 48.3337 -24.5089 50.2862C-26.6866 51.8061 -28.8998 54.0341 -29.7382 56.6088C-30.2212 58.0843 -29.0746 59.0353 -27.7117 58.6709C-26.5473 58.3598 -25.7266 57.1391 -25.0896 56.2177C-22.6157 52.6387 -18.1182 49.2818 -13.6562 48.9915C-5.81373 48.4819 -0.445168 55.3437 2.92945 61.4352C4.84933 64.9076 8.52318 68.1577 12.7926 66.8186C17.6841 65.2779 19.9684 60.8693 20.5373 56.0014C21.3728 48.8522 17.6693 41.5104 16.5938 34.5331C15.8472 29.686 14.8073 24.9011 14.4754 19.9977C14.1732 15.5239 14.4665 9.80567 18.6529 7.12435C27.5531 1.42988 35.8697 13.6454 38.1807 20.7028C38.3407 21.1887 39.7954 20.7709 39.6443 20.3087Z" fill="#231F20"/>
<path d="M31.1531 10.7891C31.1531 13.5386 29.5917 15.7695 27.6659 15.7695C25.7401 15.7695 24.1816 13.5386 24.1816 10.7891C24.1816 8.03963 25.7401 5.80865 27.6659 5.80865C29.5917 5.80865 31.1531 8.03963 31.1531 10.7891Z" fill="white"/>
<path d="M30.7913 10.7236C30.7142 12.4835 30.2076 14.2019 28.661 15.2152C25.9442 16.9988 24.6168 12.6317 24.5398 10.854C24.4628 9.14151 25.2212 7.31051 26.67 6.36242C29.3869 4.58178 30.7142 8.94596 30.7913 10.7236C30.8061 11.0199 31.526 11.1947 31.5112 10.854C31.4224 8.81264 30.4594 5.8143 27.9944 5.59802C25.1235 5.34322 23.9235 8.306 23.8198 10.7236C23.731 12.7561 24.9872 15.7722 27.3367 15.9796C30.2106 16.2344 31.4075 13.2716 31.5112 10.854C31.5231 10.5607 30.8091 10.374 30.7913 10.7236Z" fill="#231F20"/>
<path d="M26.9931 9.71084C27.0998 9.95675 27.1679 10.2738 27.1679 10.6234C27.1679 11.3878 26.8628 12.007 26.4835 12.007C26.1043 12.007 25.7962 11.3878 25.7962 10.6234C25.7962 10.259 25.8673 9.93009 25.9828 9.68121C25.1088 9.94786 24.46 10.9226 24.46 12.0959C24.46 13.4706 25.3518 14.5876 26.451 14.5876C27.5501 14.5876 28.4449 13.4706 28.4449 12.0959C28.4449 10.9582 27.8286 10.0101 26.9931 9.71084Z" fill="#231F20"/>
<path d="M38.2488 10.7062C38.2488 13.4557 36.6874 15.6867 34.7616 15.6867C32.8358 15.6867 31.2773 13.4557 31.2773 10.7062C31.2773 7.95675 32.8358 5.72577 34.7616 5.72577C36.6874 5.72577 38.2488 7.95675 38.2488 10.7062Z" fill="white"/>
<path d="M37.8871 10.6197C37.819 12.1544 37.4575 13.4906 36.4146 14.6669C33.6533 17.7778 31.7245 12.741 31.6386 10.7915C31.5764 9.3131 32.1393 7.83763 33.1111 6.74436C35.8754 3.63048 37.8012 8.67017 37.8871 10.6197C37.899 10.8834 38.6219 10.9871 38.613 10.7915C38.5271 8.77387 37.5968 5.79924 35.1406 5.57999C32.2667 5.32519 31.0194 8.13391 30.9127 10.6197C30.8239 12.6314 32.0416 15.6209 34.3851 15.8283C37.259 16.0831 38.5034 13.2773 38.613 10.7915C38.6249 10.5338 37.896 10.4093 37.8871 10.6197Z" fill="#231F20"/>
<path d="M34.0918 9.62756C34.1985 9.8705 34.2666 10.1875 34.2666 10.5401C34.2666 11.3045 33.9585 11.9267 33.5792 11.9267C33.2 11.9267 32.8948 11.3045 32.8948 10.5401C32.8948 10.1757 32.9659 9.8468 33.0815 9.60089C32.2075 9.86458 31.5557 10.8423 31.5557 12.0156C31.5557 13.3873 32.4504 14.5043 33.5467 14.5043C34.6488 14.5043 35.5406 13.3873 35.5406 12.0156C35.5406 10.8749 34.9273 9.9268 34.0918 9.62756Z" fill="#231F20"/>
<path d="M29.7308 4.16121C26.9754 1.98653 23.583 4.3212 22.3594 7.04993C22.1224 7.58027 23.3963 7.07363 23.5682 6.68551C24.5311 4.54045 26.7028 3.47977 28.679 5.04412C29.0256 5.31966 30.1574 4.49601 29.7308 4.16121Z" fill="#231F20"/>
<path d="M32.6049 1.84437C35.061 -0.543637 38.0919 2.01621 39.1852 5.01455C39.3956 5.59525 38.2579 5.03825 38.1038 4.61457C37.2446 2.25916 35.3069 1.09775 33.5411 2.8132C33.23 3.11244 32.2286 2.21175 32.6049 1.84437Z" fill="#231F20"/>
<path d="M20.7803 23.402C20.7329 22.9606 20.7922 22.4984 20.9344 22.0895C21.5032 20.4778 23.4142 21.4377 24.4097 21.9088C24.6319 22.0125 25.2304 21.6747 25.1919 21.657C23.8113 21.0051 21.9388 20.3474 20.6114 21.4822C20.0722 21.9414 19.8767 22.851 19.9567 23.5946C19.9774 23.7635 20.804 23.6094 20.7803 23.402Z" fill="#231F20"/>
<path d="M20.7803 23.4016C20.7329 22.9601 20.7922 22.498 20.9344 22.0891C21.5032 20.4773 23.4142 21.4373 24.4097 21.9084C24.6319 22.0121 25.2304 21.6743 25.1919 21.6565C23.8113 21.0047 21.9388 20.347 20.6114 21.4817C20.0722 21.9409 19.8767 22.8505 19.9567 23.5942C19.9774 23.7631 20.804 23.609 20.7803 23.4016Z" stroke="#231F20" stroke-width="0.467"/>
</g>
</svg>
